# xmcd
#
# Track frame offsets:
# 150
# 16507
# 31965
# 50515
# 70235
# 86495
# 102312
# 120637
# 138460
# 155267
#
# Disc length: 2294 seconds
#
#
# Revision: 4
# Processed by: cddbd v1.4PL0 Copyright (c) Steve Scherf et al.
# Submitted via: FreeRIP 2.30 
#
DISCID=7708f40a
DTITLE=Lenny LeBlanc - The Bridge
DYEAR=1996
DGENRE=Contemporary Christian
TTITLE0=Inspiration of My Heart
TTITLE1=Looking Up
TTITLE2=When the Rain Comes In
TTITLE3=Heaven Is
TTITLE4=The Bridge
TTITLE5=Enough of You
TTITLE6=River of Forgiveness
TTITLE7=I'll Be There
TTITLE8=Candle in the Rain
TTITLE9=Message to You
EXTD=
EXTT0=
EXTT1=
EXTT2=
EXTT3=
EXTT4=
EXTT5=
EXTT6=
EXTT7=
EXTT8=
EXTT9=
PLAYORDER=
